<mxfile host="app.diagrams.net" modified="2024-06-21T07:59:08.143Z" agent="Mozilla/5.0 (Windows NT 10.0; Win64; x64) AppleWebKit/537.36 (KHTML, like Gecko) Chrome/125.0.0.0 Safari/537.36" etag="3mmjEAKR_lbxeRoP27T9" version="24.6.0" type="github">
  <diagram name="Page-1" id="42789a77-a242-8287-6e28-9cd8cfd52e62">
    <mxGraphModel dx="1434" dy="746" grid="1" gridSize="10" guides="1" tooltips="1" connect="1" arrows="1" fold="1" page="1" pageScale="1" pageWidth="1100" pageHeight="850" background="none" math="0" shadow="0">
      <root>
        <mxCell id="0" />
        <mxCell id="1" parent="0" />
        <mxCell id="7i9hrcjtBTvHGrRiyXys-5" style="edgeStyle=orthogonalEdgeStyle;rounded=0;orthogonalLoop=1;jettySize=auto;html=1;" edge="1" parent="1" source="7i9hrcjtBTvHGrRiyXys-3" target="7i9hrcjtBTvHGrRiyXys-4">
          <mxGeometry relative="1" as="geometry" />
        </mxCell>
        <mxCell id="7i9hrcjtBTvHGrRiyXys-3" value="&lt;span style=&quot;color: rgb(25, 25, 25); font-family: 寰蒋闆呴粦; font-size: 13.3333px;&quot;&gt;车控app分析座椅未恢复到位置&lt;/span&gt;" style="rounded=1;whiteSpace=wrap;html=1;" vertex="1" parent="1">
          <mxGeometry x="480" y="40" width="120" height="60" as="geometry" />
        </mxCell>
        <mxCell id="7i9hrcjtBTvHGrRiyXys-7" style="rounded=0;orthogonalLoop=1;jettySize=auto;html=1;" edge="1" parent="1" source="7i9hrcjtBTvHGrRiyXys-4" target="7i9hrcjtBTvHGrRiyXys-6">
          <mxGeometry relative="1" as="geometry" />
        </mxCell>
        <mxCell id="7i9hrcjtBTvHGrRiyXys-8" value="precondition check failed, Return instantly" style="edgeLabel;html=1;align=center;verticalAlign=middle;resizable=0;points=[];" vertex="1" connectable="0" parent="7i9hrcjtBTvHGrRiyXys-7">
          <mxGeometry x="0.051" y="-1" relative="1" as="geometry">
            <mxPoint as="offset" />
          </mxGeometry>
        </mxCell>
        <mxCell id="7i9hrcjtBTvHGrRiyXys-10" style="rounded=0;orthogonalLoop=1;jettySize=auto;html=1;" edge="1" parent="1" source="7i9hrcjtBTvHGrRiyXys-4" target="7i9hrcjtBTvHGrRiyXys-9">
          <mxGeometry relative="1" as="geometry" />
        </mxCell>
        <mxCell id="7i9hrcjtBTvHGrRiyXys-11" value="setDataFromDb enter. mType = 0" style="edgeLabel;html=1;align=center;verticalAlign=middle;resizable=0;points=[];" vertex="1" connectable="0" parent="7i9hrcjtBTvHGrRiyXys-10">
          <mxGeometry x="0.0637" y="1" relative="1" as="geometry">
            <mxPoint y="1" as="offset" />
          </mxGeometry>
        </mxCell>
        <mxCell id="7i9hrcjtBTvHGrRiyXys-16" style="rounded=0;orthogonalLoop=1;jettySize=auto;html=1;" edge="1" parent="1" source="7i9hrcjtBTvHGrRiyXys-4" target="7i9hrcjtBTvHGrRiyXys-15">
          <mxGeometry relative="1" as="geometry" />
        </mxCell>
        <mxCell id="7i9hrcjtBTvHGrRiyXys-4" value="&lt;span style=&quot;font-family: 寰蒋闆呴粦; font-size: 10pt; color: rgb(25, 25, 25);&quot;&gt;描述：&lt;/span&gt;&lt;font face=&quot;寰蒋闆呴粦&quot; color=&quot;#191919&quot;&gt;&lt;span style=&quot;font-size: 13.3333px;&quot;&gt;搜索获取下发位置操作结果&lt;/span&gt;&lt;/font&gt;&lt;div style=&quot;font-family: Verdana;&quot;&gt;&lt;font face=&quot;寰蒋闆呴粦&quot; color=&quot;#191919&quot;&gt;&lt;span style=&quot;font-size: 13.3333px;&quot;&gt;关键字：&lt;/span&gt;&lt;/font&gt;&lt;span style=&quot;background-color: initial; font-size: 13.3333px;&quot;&gt;&lt;font face=&quot;寰蒋闆呴粦&quot; color=&quot;#191919&quot;&gt;SeatPositionSetting.*?precondition check failed, Return instantly或&lt;/font&gt;&lt;/span&gt;&lt;span style=&quot;background-color: initial; font-size: 13.3333px;&quot;&gt;&lt;font face=&quot;寰蒋闆呴粦&quot; color=&quot;#191919&quot;&gt;SeatPositionSetting.*?setDataFromDb enter. mType&lt;/font&gt;&lt;/span&gt;&lt;/div&gt;" style="rounded=1;whiteSpace=wrap;html=1;" vertex="1" parent="1">
          <mxGeometry x="330" y="169" width="420" height="60" as="geometry" />
        </mxCell>
        <mxCell id="7i9hrcjtBTvHGrRiyXys-6" value="&lt;span style=&quot;font-family:&#39;寰蒋闆呴粦&#39;; font-size:10pt; color:#191919;&quot;&gt;Y：前置条件不满足，不会下发位置，检查前置条件：P档&amp;amp;小憩模式关&amp;amp;露营模式关&lt;/span&gt;" style="rounded=1;whiteSpace=wrap;html=1;" vertex="1" parent="1">
          <mxGeometry x="210" y="350" width="190" height="60" as="geometry" />
        </mxCell>
        <mxCell id="7i9hrcjtBTvHGrRiyXys-13" style="rounded=0;orthogonalLoop=1;jettySize=auto;html=1;" edge="1" parent="1" source="7i9hrcjtBTvHGrRiyXys-9" target="7i9hrcjtBTvHGrRiyXys-12">
          <mxGeometry relative="1" as="geometry" />
        </mxCell>
        <mxCell id="7i9hrcjtBTvHGrRiyXys-14" value="false" style="edgeLabel;html=1;align=center;verticalAlign=middle;resizable=0;points=[];" vertex="1" connectable="0" parent="7i9hrcjtBTvHGrRiyXys-13">
          <mxGeometry x="-0.047" y="4" relative="1" as="geometry">
            <mxPoint as="offset" />
          </mxGeometry>
        </mxCell>
        <mxCell id="7i9hrcjtBTvHGrRiyXys-9" value="描述：分析门当前状态&lt;div&gt;关键字：driver door open status&lt;/div&gt;" style="rounded=1;whiteSpace=wrap;html=1;" vertex="1" parent="1">
          <mxGeometry x="540" y="450" width="170" height="60" as="geometry" />
        </mxCell>
        <mxCell id="7i9hrcjtBTvHGrRiyXys-12" value="描述：&lt;span style=&quot;font-family:&#39;寰蒋闆呴粦&#39;; font-size:10pt; color:#191919;&quot;&gt;门已经是关闭状态&lt;/span&gt;" style="rounded=1;whiteSpace=wrap;html=1;" vertex="1" parent="1">
          <mxGeometry x="565" y="590" width="120" height="60" as="geometry" />
        </mxCell>
        <mxCell id="7i9hrcjtBTvHGrRiyXys-15" value="描述：分析门当前状态&lt;div&gt;关键字：driver door open status&lt;/div&gt;" style="rounded=1;whiteSpace=wrap;html=1;" vertex="1" parent="1">
          <mxGeometry x="900" y="350" width="170" height="60" as="geometry" />
        </mxCell>
      </root>
    </mxGraphModel>
  </diagram>
</mxfile>
